name Walk4_EMG.mot
datacolumns 17
datarows 16
range 2.89800000 2.91300000
endheader
                time	            vasmed_r	            vaslat_r	            recfem_r	               gra_r	               sar_r	            tibant_r	           perlong_r	            addmag_r	           semimem_r	          bicfemlh_r	            gasmed_r	            gaslat_r	               sol_r	               tfl_r	              gmed_r	              gmax_r	
          2.89800000	          0.16864456	          0.07796501	          0.10689493	          0.55756584	          0.78405390	          0.09280050	          0.38200607	          0.59211291	          0.22940503	          0.05603485	          0.06873483	          0.32430850	          0.12931592	          0.17424569	          0.13978832	          0.23177142	
          2.89900000	          0.15846802	          0.07834582	          0.10699698	          0.55554950	          0.78697036	          0.09320764	          0.36809216	          0.58933938	          0.22676592	          0.05565907	          0.06681597	          0.32014588	          0.11997980	          0.17553506	          0.14004177	          0.23351980	
          2.90000000	          0.14855530	          0.07874466	          0.10717624	          0.55345332	          0.79019182	          0.09365791	          0.35407178	          0.58624453	          0.22406202	          0.05525113	          0.06506594	          0.31573617	          0.11095365	          0.17687861	          0.14030873	          0.23530270	
          2.90100000	          0.13892241	          0.07916142	          0.10743744	          0.55129232	          0.79371115	          0.09415448	          0.33998158	          0.58283489	          0.22129444	          0.05481225	          0.06348193	          0.31108432	          0.10224938	          0.17830133	          0.14059201	          0.23710992	
          2.90200000	          0.12958391	          0.07959548	          0.10778371	          0.54908093	          0.79753099	          0.09470274	          0.32585808	          0.57912211	          0.21846378	          0.05434408	          0.06206136	          0.30619664	          0.09387701	          0.17983233	          0.14089215	          0.23893251	
          2.90300000	          0.12055279	          0.08004563	          0.10821786	          0.54683164	          0.80166574	          0.09530886	          0.31173720	          0.57512108	          0.21557035	          0.05384899	          0.06080115	          0.30108090	          0.08584485	          0.18150270	          0.14120755	          0.24076148	
          2.90400000	          0.11184045	          0.08051051	          0.10874508	          0.54455435	          0.80613725	          0.09597849	          0.29765388	          0.57084754	          0.21261465	          0.05333025	          0.05969788	          0.29574664	          0.07815962	          0.18334472	          0.14153506	          0.24258700	
          2.90500000	          0.10345686	          0.08098902	          0.10937812	          0.54225593	          0.81096785	          0.09671719	          0.28364230	          0.56631609	          0.20959748	          0.05279187	          0.05874806	          0.29020495	          0.07082646	          0.18539015	          0.14187043	          0.24439878	
          2.90600000	          0.09541068	          0.08147994	          0.11014339	          0.53994068	          0.81617467	          0.09753226	          0.26973604	          0.56153900	          0.20651972	          0.05223852	          0.05794793	          0.28446778	          0.06384908	          0.18766776	          0.14220859	          0.24618634	
          2.90700000	          0.08770949	          0.08198130	          0.11108422	          0.53761111	          0.82176539	          0.09843499	          0.25596798	          0.55652631	          0.20338226	          0.05167501	          0.05729279	          0.27854754	          0.05722995	          0.19020146	          0.14254373	          0.24793933	
          2.90800000	          0.08035972	          0.08249015	          0.11226109	          0.53526834	          0.82773498	          0.09944152	          0.24236977	          0.55128838	          0.20018599	          0.05110586	          0.05677693	          0.27245769	          0.05097048	          0.19300890	          0.14286969	          0.24964827	
          2.90900000	          0.07336667	          0.08300301	          0.11375012	          0.53291209	          0.83406409	          0.10057143	          0.22897142	          0.54584043	          0.19693191	          0.05053508	          0.05639394	          0.26621386	          0.04507106	          0.19610008	          0.14318091	          0.25130451	
          2.91000000	          0.06673452	          0.08351646	          0.11563827	          0.53054065	          0.84071899	          0.10184518	          0.21580141	          0.54020539	          0.19362130	          0.04996628	          0.05613730	          0.25983410	          0.03953119	          0.19947676	          0.14347367	          0.25289889	
          2.91100000	          0.06046641	          0.08402753	          0.11801364	          0.52815140	          0.84765316	          0.10328182	          0.20288713	          0.53441225	          0.19025578	          0.04940277	          0.05600133	          0.25333832	          0.03434958	          0.20313393	          0.14374612	          0.25442079	
          2.91200000	          0.05456441	          0.08453358	          0.12095785	          0.52574165	          0.85481005	          0.10489729	          0.19025538	          0.52849154	          0.18683769	          0.04884766	          0.05598182	          0.24674754	          0.02952409	          0.20706280	          0.14399761	          0.25585900	
          2.91300000	          0.04902936	          0.08503196	          0.12454817	          0.52330925	          0.86212658	          0.10670338	          0.17793274	          0.52247107	          0.18337043	          0.04830387	          0.05607551	          0.24008300	          0.02505168	          0.21125369	          0.14422813	          0.25720317	
